<svg xmlns="http://www.w3.org/2000/svg" viewBox="0 0 315.26 100"><title>logo</title><path d="M15.61,33.25V50.84a3.43,3.43,0,0,0,.66,2.23,4.7,4.7,0,0,0,2.33,1.28V55.7H0V54.36a4.42,4.42,0,0,0,2.31-1.22A3.47,3.47,0,0,0,3,50.88V7.82A3.3,3.3,0,0,0,2.33,5.6,4.93,4.93,0,0,0,0,4.33V3H47.26a3.45,3.45,0,0,0,2.28-.66A4.69,4.69,0,0,0,50.79,0H52V15.53H50.79a4.73,4.73,0,0,0-1.25-2.33,3.36,3.36,0,0,0-2.28-.66H15.61V24.11H35.5a3.4,3.4,0,0,0,2.26-.66A4.83,4.83,0,0,0,39,21.12h1.26V36.25H39a4.76,4.76,0,0,0-1.25-2.33,3.35,3.35,0,0,0-2.28-.66ZM74.34,34V50.84A3.43,3.43,0,0,0,75,53.08a4.7,4.7,0,0,0,2.33,1.28V55.7H58.73V54.36A4.42,4.42,0,0,0,61,53.14a3.47,3.47,0,0,0,.67-2.27V7.82a3.3,3.3,0,0,0-.66-2.22,4.93,4.93,0,0,0-2.33-1.27V3H93.31a58.74,58.74,0,0,1,10.26.67,17.89,17.89,0,0,1,6.31,2.48q5.71,3.71,5.7,12.13,0,6.38-3.52,10t-11.34,5.19l10,13.91a30.61,30.61,0,0,0,4.38,5.24,7.76,7.76,0,0,0,3.71,1.77V55.7H96.66V54.36q2.46-.65,2.46-2.12a6.5,6.5,0,0,0-1.51-3.13L87,34Zm0-9.54H93.43a16.46,16.46,0,0,0,6.42-.95c1.94-.84,2.92-2.52,2.92-5,0-2.23-.69-3.78-2.06-4.66s-3.81-1.32-7.29-1.32H74.34Zm92.88,18H142.94l-2.75,5.73a8.06,8.06,0,0,0-1,3.24c0,1.51,1,2.48,3,2.88V55.7H122.86V54.36a5,5,0,0,0,2.65-1.07,12.15,12.15,0,0,0,2.06-3.15l19.24-38.93a8.9,8.9,0,0,0,1.07-3.86c0-1.28-.87-2.28-2.64-3V3h20.48V4.35c-1.72.69-2.59,1.75-2.59,3.2a8.66,8.66,0,0,0,1.17,3.81l20,37.74a17.54,17.54,0,0,0,2.59,4,5.79,5.79,0,0,0,2.87,1.28V55.7H168.24V54.36c2.06-.34,3.08-1.3,3.08-2.86a8.18,8.18,0,0,0-1.17-3.61Zm-3.82-7.42-8.62-16.93-8.21,16.93ZM208.61,21V50.84a3.4,3.4,0,0,0,.67,2.25,4.73,4.73,0,0,0,2.32,1.27V55.7H194.15V54.36a4.42,4.42,0,0,0,2.31-1.22,3.47,3.47,0,0,0,.67-2.27V7.82a3.3,3.3,0,0,0-.66-2.22,4.93,4.93,0,0,0-2.33-1.27V3h20.23V4.33q-2.07.51-2.07,1.83a4.07,4.07,0,0,0,1.51,2.63l28.33,28v-29a3.36,3.36,0,0,0-.66-2.23,4.56,4.56,0,0,0-2.33-1.26V3H256.6V4.33a4.56,4.56,0,0,0-2.33,1.24,3.4,3.4,0,0,0-.66,2.23v43a3.44,3.44,0,0,0,.66,2.23,4.69,4.69,0,0,0,2.33,1.28V55.7H237.75V54.36c1.38-.27,2.07-.85,2.07-1.72a2.22,2.22,0,0,0-.56-1.37c-.39-.47-1.24-1.38-2.59-2.75Zm86.31-8.45V50.84a3.43,3.43,0,0,0,.66,2.23,4.69,4.69,0,0,0,2.33,1.28V55.7h-18.6V54.36a4.44,4.44,0,0,0,2.31-1.22,3.45,3.45,0,0,0,.68-2.27V12.53H266.76a3.45,3.45,0,0,0-2.28.66,4.77,4.77,0,0,0-1.25,2.33H262V0h1.26a4.58,4.58,0,0,0,1.2,2.31,3.39,3.39,0,0,0,2.28.67h43.77a3.48,3.48,0,0,0,2.28-.66A4.69,4.69,0,0,0,314,0h1.25V15.52H314a4.74,4.74,0,0,0-1.25-2.33,3.36,3.36,0,0,0-2.28-.66Z"/><path d="M225.62,78.72H222V99.66h-3.19V78.72h-3.61V76h10.41ZM205,99.66h-8.56V76h8.4v2.7h-5.2v7.49h4.82V88.9h-4.82V97h5.35Zm-20.29,0h-8.56V76h3.19V97h5.35ZM137.3,78.72h-3.61V99.66h-3.2V78.72h-3.62V76h10.42ZM115.73,94.07q0,5.93-5.31,5.93-5.82,0-5.82-5.89V76h3.19V92.75a10.43,10.43,0,0,0,.45,3.72,1.94,1.94,0,0,0,2,1c1,0,1.66-.36,1.91-1.08a13.14,13.14,0,0,0,.39-3.85V76h3.19ZM88.72,88q0-6.73-.8-8.31a2.53,2.53,0,0,0-2.36-1.58A2.55,2.55,0,0,0,83,80a20.58,20.58,0,0,0-.69,6.4v1.3A34.27,34.27,0,0,0,82.88,95a2.6,2.6,0,0,0,2.68,2.31A2.68,2.68,0,0,0,87.78,96q.93-1.3.93-7.17ZM79,87.78q0-7.7,1.51-10t5-2.26q4,0,5.28,2.53T92,87.2a38.53,38.53,0,0,1-.58,8.18,5.72,5.72,0,0,1-2,3.35,7.88,7.88,0,0,1-7.8.07,5.91,5.91,0,0,1-2-3.21A31.25,31.25,0,0,1,79,87.78Z" style="fill:#e00007"/><path d="M163.39,96.25l-8.63-16.93-8.21,16.93Z" style="fill:#e00007"/></svg>