<svg xmlns="http://www.w3.org/2000/svg" viewBox="0 0 12.01 20"><title>ok</title><path d="M5,14.09A7.77,7.77,0,0,1,.87,12.61c-.15-.12-.3-.23-.44-.36a1.18,1.18,0,0,1-.16-1.67,1.18,1.18,0,0,1,1.57-.35,2.43,2.43,0,0,1,.34.2,6.8,6.8,0,0,0,7.53.07,2,2,0,0,1,.73-.38,1.15,1.15,0,0,1,1.32.53,1.12,1.12,0,0,1-.08,1.47A6.09,6.09,0,0,1,9.5,13.53,10.28,10.28,0,0,1,7,14.09l.27.29,3.46,3.47A1.14,1.14,0,0,1,11,19.19a1.36,1.36,0,0,1-1.28.8,1.25,1.25,0,0,1-.81-.41C8,18.7,7.15,17.84,6.3,16.95c-.25-.26-.37-.21-.59,0-.87.9-1.76,1.79-2.66,2.67a1.11,1.11,0,0,1-1.34.24,1.36,1.36,0,0,1-.79-1.25,1.25,1.25,0,0,1,.42-.84l3.41-3.42Z"/><path d="M6,10.12a5.06,5.06,0,1,1,5.09-5A5.06,5.06,0,0,1,6,10.12ZM8.48,5.06A2.48,2.48,0,1,0,6,7.54,2.47,2.47,0,0,0,8.48,5.06Z"/></svg>