<svg xmlns="http://www.w3.org/2000/svg" viewBox="0 0 20 16.25"><title>twitter</title><path d="M20,1.92a8.19,8.19,0,0,1-2.36.65A4.12,4.12,0,0,0,19.45.3a8.27,8.27,0,0,1-2.61,1A4.11,4.11,0,0,0,9.85,5,11.65,11.65,0,0,1,1.39.75,4.11,4.11,0,0,0,2.66,6.23,4.1,4.1,0,0,1,.8,5.71v.05a4.11,4.11,0,0,0,3.29,4A4.16,4.16,0,0,1,3,9.93a3.94,3.94,0,0,1-.77-.08A4.1,4.1,0,0,0,6.07,12.7,8.23,8.23,0,0,1,1,14.46a8.71,8.71,0,0,1-1-.06,11.6,11.6,0,0,0,6.29,1.85A11.59,11.59,0,0,0,18,4.57V4A8.19,8.19,0,0,0,20,1.92Z" style="fill:#010002"/></svg>