<svg xmlns="http://www.w3.org/2000/svg" viewBox="0 0 20 11.41"><title>vk</title><path d="M19.89,10.31l-.07-.13a10.36,10.36,0,0,0-2-2.3l0,0h0q-.67-.64-.84-.85a.8.8,0,0,1-.15-.84,7.86,7.86,0,0,1,.94-1.36l.68-.89Q20.21,1.49,20,.82l-.06-.1a.61.61,0,0,0-.32-.17,1.64,1.64,0,0,0-.67,0l-3,0a.39.39,0,0,0-.21,0l-.14,0-.05,0,0,0a.46.46,0,0,0-.11.11.71.71,0,0,0-.1.18,17,17,0,0,1-1.11,2.34q-.39.65-.71,1.12a5.38,5.38,0,0,1-.54.7,3.77,3.77,0,0,1-.4.36q-.18.14-.27.11l-.18,0a.69.69,0,0,1-.23-.26,1.15,1.15,0,0,1-.12-.41q0-.24,0-.42t0-.5c0-.22,0-.36,0-.44q0-.4,0-.86t0-.73q0-.27,0-.57a2.41,2.41,0,0,0,0-.47,1.62,1.62,0,0,0-.11-.33.56.56,0,0,0-.21-.25A1.2,1.2,0,0,0,11,.14,6.93,6.93,0,0,0,9.62,0,6.83,6.83,0,0,0,7.13.25a1.4,1.4,0,0,0-.4.31q-.19.23-.05.25a1.28,1.28,0,0,1,.89.45l.06.13a2,2,0,0,1,.15.48,4.83,4.83,0,0,1,.09.76,8.11,8.11,0,0,1,0,1.3q-.05.54-.1.84a1.69,1.69,0,0,1-.14.49,2.06,2.06,0,0,1-.13.23l-.05.05a.78.78,0,0,1-.28.05.66.66,0,0,1-.35-.15A2.5,2.5,0,0,1,6.39,5a5.36,5.36,0,0,1-.51-.71Q5.6,3.88,5.3,3.25l-.17-.3Q5,2.66,4.71,2.1T4.23,1A.69.69,0,0,0,4,.69l-.05,0L3.76.57,3.52.5.67.52a.73.73,0,0,0-.59.2L0,.78A.34.34,0,0,0,0,.95a.83.83,0,0,0,.06.28Q.69,2.7,1.42,4.06T2.7,6.26q.54.83,1.1,1.57t.74.95l.29.31.26.25a6.18,6.18,0,0,0,.73.6,12.51,12.51,0,0,0,1.07.69,5.82,5.82,0,0,0,1.37.55,4.73,4.73,0,0,0,1.52.17H11a.83.83,0,0,0,.55-.23l0-.05a.69.69,0,0,0,.08-.19,1.06,1.06,0,0,0,0-.29,3.43,3.43,0,0,1,.07-.81,2.12,2.12,0,0,1,.18-.54,1.33,1.33,0,0,1,.22-.31.9.9,0,0,1,.18-.15l.08,0a.66.66,0,0,1,.59.16,3.46,3.46,0,0,1,.64.6q.3.36.71.81a4.9,4.9,0,0,0,.73.67l.21.12a2.53,2.53,0,0,0,.54.23,1.17,1.17,0,0,0,.58.05l2.67,0a1.21,1.21,0,0,0,.61-.13.52.52,0,0,0,.26-.29.81.81,0,0,0,0-.35A1.31,1.31,0,0,0,19.89,10.31Z"/></svg>