<?xml version="1.0" standalone="no"?>
<!DOCTYPE svg PUBLIC "-//W3C//DTD SVG 20010904//EN"
 "http://www.w3.org/TR/2001/REC-SVG-20010904/DTD/svg10.dtd">
<svg version="1.0" xmlns="http://www.w3.org/2000/svg"
 width="880.000000pt" height="880.000000pt" viewBox="0 0 880.000000 880.000000"
 preserveAspectRatio="xMidYMid meet">
<metadata>
Created by potrace 1.11, written by Peter Selinger 2001-2013
</metadata>
<g transform="translate(0.000000,880.000000) scale(0.100000,-0.100000)"
fill="#000000" stroke="none">
<path d="M8300 8760 c-15 -57 -69 -182 -88 -202 -8 -10 -12 -18 -9 -18 10 0
-21 -37 -77 -92 -41 -42 -90 -72 -131 -82 -5 -2 -17 -6 -26 -10 -9 -4 -33 -8
-53 -9 -20 -1 -36 -5 -36 -8 0 -3 -33 -7 -72 -8 -40 -2 -1749 -3 -3798 -4
l-3725 -2 -3 -106 -3 -106 31 -6 c47 -10 162 -62 237 -108 86 -53 164 -153
178 -231 3 -13 7 -34 11 -48 3 -14 8 -41 10 -60 7 -56 7 -6940 0 -6990 -14
-100 -24 -136 -58 -199 -32 -58 -104 -135 -138 -146 -11 -3 -20 -10 -20 -14 0
-8 -147 -68 -215 -89 l-30 -9 -3 -106 -3 -107 1471 0 c1393 0 1470 1 1471 18
1 21 1 173 0 188 -1 6 -7 11 -13 11 -7 1 -42 12 -78 26 -220 85 -315 178 -359
348 -18 71 -19 134 -20 1515 l-1 1440 1622 -2 c1060 -1 1640 -5 1673 -12 86
-18 94 -20 143 -47 105 -57 183 -166 242 -341 l24 -71 98 0 98 0 1 46 c3 287
0 2331 -4 2338 -7 11 -178 10 -195 -1 -7 -4 -12 -15 -12 -26 0 -23 -55 -152
-86 -202 -13 -20 -24 -41 -24 -46 0 -4 -24 -31 -52 -59 -56 -55 -132 -95 -214
-114 -35 -9 -504 -12 -1681 -14 l-1633 -3 0 914 0 914 2543 -1 c1588 0 2561
-4 2592 -10 28 -5 60 -11 71 -13 81 -15 207 -109 245 -184 8 -15 16 -29 19
-32 9 -8 57 -122 75 -177 11 -35 23 -53 34 -54 97 -3 172 -1 177 4 5 4 9 2359
5 2435 -1 9 -28 12 -101 12 l-99 0 -11 -40z"/>
</g>
</svg>
