<svg width="206" height="220" viewBox="0 0 206 220" fill="none" xmlns="http://www.w3.org/2000/svg">
<path d="M61.7345 200.814V131.332L140.379 131.364C144.379 131.364 147.299 132.156 149.395 133.964C151.49 135.772 153.077 138.795 154.347 143.171H159.31V83.3932H154.347C153.014 87.833 151.363 90.888 149.331 92.6004C147.299 94.3129 144.379 95.2008 140.379 95.2008H61.7345V49.5137H186.876C190.875 49.5137 193.796 50.3171 195.891 52.1142C197.986 53.9112 199.574 56.9345 200.844 61.3108H205.806V0H200.844C199.574 4.43975 197.923 7.48415 195.891 9.19662C193.86 10.9091 190.875 11.797 186.876 11.797H0V17.0825C4.44438 18.4144 7.49196 20.1163 9.20622 22.093C10.9205 24.0698 11.8094 26.9873 11.8094 30.8562V200.941C11.8094 204.81 10.8781 207.801 9.14272 209.894C7.4073 211.987 4.3174 213.573 0 214.715V220H73.5545V214.715C69.1101 213.383 66.0519 211.734 64.3377 209.641C62.6234 207.548 61.7345 204.619 61.7345 200.814Z" fill="black"/>
</svg>
