<svg xmlns="http://www.w3.org/2000/svg" viewBox="0 0 255.75 198.45"><title>mastercard</title><path d="M46.54,198V184.84c0-5-3.07-8.34-8.34-8.34a8.66,8.66,0,0,0-7.46,3.73,7.68,7.68,0,0,0-7-3.73,7.09,7.09,0,0,0-6.15,3.07v-2.63H13V198h4.61V186.38c0-3.73,2-5.49,5-5.49s4.61,2,4.61,5.49V198h4.61V186.38c0-3.73,2.2-5.49,5-5.49,3.07,0,4.61,2,4.61,5.49V198Zm68.27-21.07h-7.46v-6.37h-4.61v6.37H98.57v4.17h4.17v9.66c0,4.83,2,7.68,7.24,7.68a12.28,12.28,0,0,0,5.71-1.54l-1.32-4a7.22,7.22,0,0,1-4,1.1c-2.2,0-3.07-1.32-3.07-3.51v-9.44h7.46v-4.17Zm39.08-.44a6.19,6.19,0,0,0-5.49,3.07v-2.63h-4.61V198h4.61V186.16c0-3.51,1.54-5.49,4.39-5.49a12.85,12.85,0,0,1,2.85.44l1.32-4.39a14.49,14.49,0,0,0-3.07-.22Zm-59.05,2.2a15.07,15.07,0,0,0-8.56-2.2c-5.27,0-8.78,2.63-8.78,6.81,0,3.51,2.63,5.49,7.24,6.15l2.2.22c2.41.44,3.73,1.1,3.73,2.2,0,1.54-1.76,2.63-4.83,2.63a12.12,12.12,0,0,1-7-2.2l-2.2,3.51a15.52,15.52,0,0,0,9,2.63c6.15,0,9.66-2.85,9.66-6.81,0-3.73-2.85-5.71-7.24-6.37l-2.2-.22c-2-.22-3.51-.66-3.51-2,0-1.54,1.54-2.41,4-2.41a15.83,15.83,0,0,1,6.59,1.76l2-3.73Zm122.49-2.2a6.19,6.19,0,0,0-5.49,3.07v-2.63h-4.61V198h4.61V186.16c0-3.51,1.54-5.49,4.39-5.49a12.85,12.85,0,0,1,2.85.44l1.32-4.39a14.49,14.49,0,0,0-3.07-.22Zm-58.83,11c0,6.37,4.39,11,11.2,11a10.92,10.92,0,0,0,7.46-2.41L175,192.3a8.87,8.87,0,0,1-5.49,2c-3.73,0-6.37-2.63-6.37-6.81a6.48,6.48,0,0,1,6.37-6.81,8.87,8.87,0,0,1,5.49,2l2.2-3.73a10.92,10.92,0,0,0-7.46-2.41c-6.81,0-11.2,4.61-11.2,11Zm42.59,0V176.94h-4.61v2.63a7.93,7.93,0,0,0-6.59-3.07c-5.93,0-10.54,4.61-10.54,11s4.61,11,10.54,11c3.07,0,5.27-1.1,6.59-3.07V198h4.61Zm-16.9,0c0-3.73,2.41-6.81,6.37-6.81,3.73,0,6.37,2.85,6.37,6.81,0,3.73-2.63,6.81-6.37,6.81a6.47,6.47,0,0,1-6.37-6.81Zm-55.1-11c-6.15,0-10.54,4.39-10.54,11s4.39,11,10.76,11a13.43,13.43,0,0,0,8.56-2.85l-2.2-3.29a10.49,10.49,0,0,1-6.15,2.2c-2.85,0-5.71-1.32-6.37-5h15.59v-1.76c.22-6.81-3.73-11.2-9.66-11.2Zm0,4c2.85,0,4.83,1.76,5.27,5h-11a5.56,5.56,0,0,1,5.71-5Zm114.37,7V168.6h-4.61v11a7.93,7.93,0,0,0-6.59-3.07c-5.93,0-10.54,4.61-10.54,11s4.61,11,10.54,11c3.07,0,5.27-1.1,6.59-3.07V198h4.61Zm-16.9,0c0-3.73,2.41-6.81,6.37-6.81,3.73,0,6.37,2.85,6.37,6.81,0,3.73-2.63,6.81-6.37,6.81a6.47,6.47,0,0,1-6.37-6.81Zm-154.11,0V176.94H67.83v2.63a7.93,7.93,0,0,0-6.59-3.07c-5.93,0-10.54,4.61-10.54,11s4.61,11,10.54,11c3.07,0,5.27-1.1,6.59-3.07V198h4.61Zm-17.12,0c0-3.73,2.41-6.81,6.37-6.81,3.73,0,6.37,2.85,6.37,6.81,0,3.73-2.63,6.81-6.37,6.81A6.47,6.47,0,0,1,55.32,187.47Z"/><rect x="93.3" y="16.9" width="69.15" height="124.25" style="fill:#999"/><path d="M97.69,79A79.24,79.24,0,0,1,127.76,16.9,79,79,0,1,0,79,158.06a78.54,78.54,0,0,0,48.73-16.9A78.91,78.91,0,0,1,97.69,79Z" style="fill:#4d4d4d"/><path d="M255.75,79A78.95,78.95,0,0,1,128,141.15,79.2,79.2,0,0,0,128,16.9,78.95,78.95,0,0,1,255.75,79Z" style="fill:#b2b2b2"/></svg>