<svg xmlns="http://www.w3.org/2000/svg" viewBox="0 0 1000.05 323.65"><title>visa</title><polygon points="433.35 318.98 352.34 318.98 403.01 5.68 484.02 5.68 433.35 318.98" style="fill:#4d4d4d"/><path d="M727,13.34A199.64,199.64,0,0,0,654.36,0C574.36,0,518,42.66,517.68,103.65c-.66,45,40.33,70,71,85,31.34,15.33,42,25.34,42,39-.32,21-25.33,30.66-48.65,30.66-32.34,0-49.67-5-76-16.67l-10.67-5L484,307c19,8.66,54,16.34,90.35,16.67,85,0,140.34-42,141-107,.32-35.67-21.33-63-68-85.33-28.33-14.34-45.69-24-45.69-38.67.33-13.33,14.68-27,46.66-27,26.34-.67,45.69,5.66,60.34,12L716,81l11-67.65Z" style="fill:#4d4d4d"/><path d="M834.69,208c6.67-18,32.34-87.66,32.34-87.66-.34.67,6.66-18.33,10.66-30l5.66,27S898.7,192.33,902,208Zm100-202.31H872c-19.32,0-34,5.66-42.34,26L709.36,319h85s14-38.67,17-47h104c2.33,11,9.67,47,9.67,47h75L934.69,5.68h0Z" style="fill:#4d4d4d"/><path d="M284.68,5.68,205.34,219.32,196.67,176C182,126,136,71.68,84.67,44.67l72.67,274H243l127.33-313H284.68Z" style="fill:#4d4d4d"/><path d="M131.67,5.68H1.33L0,12c101.67,26,169,88.67,196.67,164L168.34,32c-4.66-20-19-25.68-36.67-26.34Z" style="fill:#848484"/></svg>