<svg width="316" height="100" viewBox="0 0 316 100" fill="none" xmlns="http://www.w3.org/2000/svg">
<path fill-rule="evenodd" clip-rule="evenodd" d="M15.6115 33.2539V50.8429C15.6115 51.8063 15.8362 52.5475 16.2697 53.0773C16.7032 53.6072 17.4766 54.0246 18.6005 54.3618V55.6998H0V54.3618C1.09178 54.0728 1.87316 53.6714 2.31201 53.1416C2.75087 52.6117 2.98635 51.8544 2.98635 50.875V7.81911C2.98635 6.83971 2.76158 6.10115 2.32807 5.60075C1.89457 5.10035 1.1239 4.66952 0 4.33235V2.99438H47.2572C48.2687 2.99438 49.0233 2.7696 49.5371 2.3361C50.0508 1.9026 50.4683 1.13192 50.7894 0.0080275H52.0444V15.5285H50.7894C50.4683 14.4207 50.0669 13.6553 49.5371 13.2004C49.0072 12.7455 48.2687 12.5421 47.2572 12.5421H15.6115V24.1076H35.4991C36.5106 24.1076 37.2491 23.8828 37.7629 23.4493C38.2767 23.0158 38.6941 22.2424 39.0313 21.1185H40.2863V36.251H39.0313C38.7102 35.1432 38.3088 34.3778 37.779 33.9203C37.2491 33.4627 36.5106 33.262 35.4991 33.262L15.6115 33.2539ZM74.3377 34.0246V50.8429C74.3377 51.8063 74.5625 52.5475 74.996 53.0773C75.4295 53.6072 76.2028 54.0246 77.3267 54.3618V55.6998H58.7262V54.3618C59.818 54.0728 60.5994 53.6714 61.0383 53.1416C61.4771 52.6117 61.7126 51.8544 61.7126 50.875V7.81911C61.7126 6.83971 61.4878 6.10115 61.0543 5.60075C60.6208 5.10035 59.8501 4.66952 58.7262 4.33235V2.99438H93.3101C97.7897 2.99438 101.21 3.21916 103.572 3.66872C105.815 4.08402 107.958 4.92418 109.885 6.14397C113.694 8.61654 115.594 12.659 115.587 18.2713C115.587 22.5261 114.415 25.8559 112.071 28.2606C109.727 30.6654 105.947 32.3941 100.731 33.4466L110.771 47.3615C112.601 49.9304 114.062 51.676 115.154 52.5983C116.21 53.5099 117.492 54.1201 118.865 54.3645V55.7024H96.6551V54.3645C98.2945 53.931 99.1143 53.2245 99.1143 52.2451C99.1143 51.5681 98.6139 50.5084 97.6023 49.1116L87.0029 34.0246H74.3377ZM74.3377 24.4849H93.4252C96.3152 24.4849 98.4667 24.1638 99.8475 23.5376C101.79 22.7 102.77 21.0142 102.77 18.5095C102.77 16.2751 102.079 14.7337 100.714 13.8507C99.3497 12.9676 96.9039 12.5341 93.4252 12.5341H74.3377V24.4849ZM167.214 42.5074H142.944L140.198 48.2419C139.521 49.6227 139.2 50.7145 139.2 51.4851C139.2 52.9971 140.214 53.9604 142.221 54.3618V55.6998H122.861V54.3618C124.049 54.1691 124.932 53.8266 125.51 53.2914C126.088 52.7562 126.778 51.6858 127.565 50.1418L146.81 11.2069C147.533 9.74311 147.881 8.45866 147.881 7.35082C147.881 6.06636 147.014 5.07091 145.245 4.34573V3.00776H165.727V4.34573C164.009 5.03612 163.139 6.09847 163.139 7.54348C163.139 8.57105 163.527 9.83944 164.314 11.3513L184.273 49.0928C185.365 51.148 186.232 52.4833 186.861 53.0773C187.49 53.6714 188.451 54.1049 189.735 54.3618V55.6998H168.242V54.3618C170.3 54.0246 171.327 53.0613 171.327 51.5012C171.327 50.5379 170.926 49.3337 170.155 47.8887L167.214 42.5074ZM163.39 35.087L154.766 18.1563L146.559 35.087H163.39ZM208.614 20.9821V50.8429C208.614 51.8063 208.839 52.5635 209.288 53.0934C209.738 53.6232 210.508 54.0407 211.603 54.3618V55.6998H194.153V54.3618C195.245 54.0728 196.026 53.6714 196.465 53.1416C196.904 52.6117 197.139 51.8544 197.139 50.875V7.81911C197.139 6.83971 196.915 6.10115 196.481 5.60075C196.048 5.10035 195.277 4.66952 194.153 4.33235V2.99438H214.378V4.33235C212.997 4.66952 212.307 5.28053 212.307 6.16538C212.307 6.91999 212.804 7.80305 213.816 8.7985L242.149 36.821V7.81911C242.149 6.83971 241.924 6.10115 241.49 5.58737C241.057 5.07359 240.286 4.63741 239.16 4.33235V2.99438H256.604V4.33235C255.48 4.63741 254.71 5.05753 254.276 5.57132C253.843 6.0851 253.618 6.83971 253.618 7.80305V50.8429C253.618 51.8063 253.843 52.5475 254.276 53.0773C254.71 53.6072 255.48 54.0246 256.604 54.3618V55.6998H237.747V54.3618C239.128 54.0942 239.821 53.5108 239.821 52.6438C239.795 52.1372 239.597 51.6547 239.259 51.2764C238.871 50.8108 238.02 49.8956 236.671 48.5309L208.614 20.9821ZM294.924 12.5341V50.8429C294.924 51.8063 295.149 52.5475 295.582 53.0773C296.016 53.6072 296.786 54.0246 297.913 54.3618V55.6998H279.318V54.3618C280.409 54.0728 281.191 53.6714 281.632 53.1416C282.074 52.6117 282.307 51.8544 282.307 50.875V12.5341H266.757C265.745 12.5341 264.991 12.7589 264.477 13.1924C263.963 13.6259 263.546 14.4126 263.224 15.5205H261.969V0H263.224C263.513 1.09178 263.915 1.86246 264.429 2.31201C264.942 2.76157 265.713 2.98635 266.709 2.98635H310.482C311.477 2.98635 312.248 2.76157 312.762 2.32807C313.275 1.89457 313.693 1.1239 314.014 0H315.261V15.5205H314.009C313.687 14.4126 313.286 13.6473 312.756 13.1924C312.226 12.7375 311.488 12.5341 310.476 12.5341H294.924Z" fill="black"/>
<path fill-rule="evenodd" clip-rule="evenodd" d="M225.617 78.7155H222.01V99.6575H218.817V78.7155H215.205V76.0182H225.617V78.7155ZM204.953 99.6575H196.39V76.0182H204.79V78.7155H199.593V86.2082H204.41V88.9002H199.593V97.0351H204.945L204.953 99.6575ZM184.667 99.6575H176.112V76.0182H179.304V96.9601H184.656L184.667 99.6575ZM137.303 78.7155H133.69V99.6575H130.49V78.7155H126.874V76.0182H137.289L137.303 78.7155ZM115.729 94.0701C115.729 98.0216 113.959 99.9982 110.42 100C106.538 100 104.596 98.0376 104.595 94.1129V76.0235H107.787V92.7455C107.787 94.5295 107.939 95.7693 108.242 96.4651C108.547 97.1555 109.211 97.498 110.238 97.498C111.266 97.498 111.897 97.1367 112.151 96.4142C112.406 95.6917 112.537 94.4046 112.537 92.5609V76.0235H115.729V94.0701ZM88.7155 87.9636C88.7155 83.4787 88.4479 80.7082 87.9127 79.6521C87.3776 78.5951 86.6015 78.0706 85.5499 78.0706C84.3136 78.0706 83.4644 78.704 83.0024 79.9706C82.5403 81.2372 82.312 83.3699 82.3174 86.3687V87.6666C82.3174 91.0169 82.5038 93.46 82.8766 94.996C83.2495 96.532 84.1415 97.3009 85.5526 97.3026C86.4196 97.3026 87.1581 96.8718 87.7763 96.0021C88.3944 95.1325 88.7075 92.7455 88.7075 88.8306L88.7155 87.9636ZM78.9751 87.7816C78.9751 82.6492 79.48 79.3292 80.4897 77.8218C81.4994 76.3143 83.1594 75.5606 85.4696 75.5606C88.1099 75.5606 89.8689 76.4035 90.7466 78.0894C91.6243 79.7752 92.0587 82.8133 92.0498 87.2036C92.0498 91.1284 91.8562 93.8542 91.4691 95.3813C91.082 96.9084 90.4085 98.0251 89.4487 98.7316C88.4854 99.4452 87.1822 99.802 85.5392 99.802C83.848 99.802 82.5511 99.4702 81.6484 98.8065C80.7457 98.1429 80.0749 97.0725 79.6361 95.5954C79.1954 94.1183 78.9751 91.5137 78.9751 87.7816Z" fill="#E00007"/>
<path fill-rule="evenodd" clip-rule="evenodd" d="M163.393 96.2456L154.766 79.3176L146.559 96.2456H163.393Z" fill="#E00007"/>
</svg>
