<svg width="13" height="20" viewBox="0 0 13 20" fill="none" xmlns="http://www.w3.org/2000/svg">
<path d="M5.0202 14.0873C3.46975 13.9256 2.0718 13.5437 0.874932 12.6077C0.726423 12.4912 0.573096 12.3789 0.437574 12.2488C-0.0862918 11.7457 -0.139076 11.1695 0.27545 10.5757C0.63007 10.0675 1.22536 9.93156 1.84411 10.2233C1.96393 10.2799 2.07808 10.3505 2.18742 10.4263C4.41799 11.9589 7.48222 12.0013 9.72116 10.4952C9.94298 10.3251 10.1801 10.1865 10.4549 10.1157C10.9892 9.97848 11.4876 10.1747 11.7743 10.6423C12.1019 11.1762 12.0977 11.6973 11.6941 12.1119C11.0749 12.7474 10.3303 13.2071 9.5029 13.528C8.72056 13.8313 7.86365 13.984 7.01554 14.0854C7.14352 14.2247 7.20384 14.2932 7.28386 14.3736C8.43548 15.5307 9.59213 16.683 10.74 17.8436C11.1311 18.2391 11.2127 18.7294 10.9974 19.1894C10.762 19.6921 10.235 20.0228 9.71823 19.9874C9.39084 19.9648 9.13551 19.8019 8.90866 19.5733C8.0396 18.6988 7.1542 17.8404 6.30273 16.9494C6.05494 16.6903 5.93576 16.7393 5.71708 16.9643C4.84278 17.8643 3.95424 18.7506 3.06046 19.6318C2.65913 20.0274 2.18156 20.0987 1.71613 19.8727C1.22138 19.6328 0.90656 19.1278 0.930858 18.6203C0.947615 18.277 1.11644 18.0147 1.35209 17.7795C2.49177 16.6415 3.62832 15.5005 4.76528 14.3606C4.84048 14.2848 4.91065 14.2044 5.0202 14.0873Z" fill="black"/>
<path d="M5.96475 10.1231C3.19879 10.1137 0.930734 7.82072 0.946863 5.05037C0.962782 2.24944 3.23231 -0.00773022 6.02549 1.98982e-05C8.82433 0.00756055 11.0708 2.2972 11.0568 5.12724C11.0425 7.89194 8.75877 10.1328 5.96475 10.1231ZM8.47851 5.05707C8.47369 3.68153 7.3782 2.58646 6.00538 2.58521C4.62104 2.58374 3.51571 3.69871 3.52639 5.08682C3.53666 6.45712 4.64157 7.54444 6.01816 7.53941C7.39056 7.5346 8.48311 6.4324 8.47851 5.05707Z" fill="black"/>
</svg>
